<?xml version="1.0" standalone="no"?>
<!DOCTYPE svg PUBLIC "-//W3C//DTD SVG 20010904//EN"
 "http://www.w3.org/TR/2001/REC-SVG-20010904/DTD/svg10.dtd">
<svg version="1.0" xmlns="http://www.w3.org/2000/svg"
 width="247.000000pt" height="247.000000pt" viewBox="0 0 247.000000 247.000000"
 preserveAspectRatio="xMidYMid meet">
<metadata>
Created by potrace 1.14, written by Peter Selinger 2001-2017
</metadata>
<g transform="translate(0.000000,247.000000) scale(0.100000,-0.100000)"
fill="#000000" stroke="none">
<path d="M995 2400 c-49 -10 -124 -30 -165 -45 -334 -121 -612 -405 -723 -738
-82 -243 -79 -551 6 -777 149 -396 472 -675 886 -766 93 -21 345 -24 441 -5
360 70 685 314 847 636 136 268 162 621 67 904 -112 334 -367 603 -699 734
-192 76 -454 99 -660 57z m388 -85 c239 -36 440 -137 612 -310 327 -326 414
-811 221 -1221 -87 -184 -221 -340 -388 -451 -176 -117 -340 -171 -549 -180
-316 -14 -596 94 -819 317 -202 202 -305 437 -317 720 -10 257 45 450 188 660
237 347 644 527 1052 465z"/>
<path d="M1075 2226 c-152 -25 -266 -69 -392 -151 -206 -134 -360 -346 -424
-585 -20 -72 -23 -110 -24 -250 0 -142 4 -177 23 -250 57 -209 189 -409 354
-537 63 -48 178 -116 185 -109 5 5 32 469 33 553 0 51 -1 52 -37 64 -136 44
-229 192 -240 385 -9 151 34 272 130 369 138 137 290 134 425 -9 92 -97 141
-237 127 -361 -21 -194 -95 -319 -224 -377 l-63 -29 5 -57 c4 -31 12 -174 18
-317 7 -143 16 -269 20 -281 17 -49 314 -58 475 -15 l81 22 12 232 c6 128 14
264 17 302 l6 70 -52 18 c-69 25 -146 100 -156 153 -10 56 4 342 29 559 l22
190 28 3 27 3 0 -335 0 -336 35 0 35 0 0 335 0 335 30 0 30 0 0 -335 0 -335
35 0 35 0 0 335 0 335 30 0 30 0 0 -335 0 -335 35 0 35 0 0 335 c0 325 1 335
19 335 22 0 22 2 46 -215 24 -216 38 -448 31 -507 -5 -35 -16 -68 -31 -88 -31
-42 -108 -97 -147 -106 l-31 -6 7 -137 c16 -331 20 -381 28 -381 21 0 133 86
199 152 121 121 223 296 264 454 143 549 -205 1112 -760 1230 -100 21 -265 26
-360 10z"/>
<path d="M643 1483 c-57 -128 -37 -291 49 -388 34 -39 83 -75 103 -75 12 0 3
24 -26 66 -17 25 -44 82 -61 127 -28 76 -30 89 -24 177 3 52 8 107 12 123 5
21 3 27 -10 27 -11 0 -26 -21 -43 -57z"/>
</g>
</svg>
